HIERARCHY
ROOT Hips
{
	OFFSET 0.000000 100.481300 0.000000
	CHANNELS 6 Xposition Yposition Zposition Xrotation Yrotation Zrotation
	JOINT Spine
	{
		OFFSET -0.279200 12.230698 -2.892100
		CHANNELS 3 Xrotation Yrotation Zrotation
		JOINT Spine1
		{
			OFFSET -0.325700 14.269203 -3.374200
			CHANNELS 3 Xrotation Yrotation Zrotation
			JOINT Spine2
			{
				OFFSET -0.372300 16.307602 -0.352600
				CHANNELS 3 Xrotation Yrotation Zrotation
				JOINT Neck
				{
					OFFSET -0.418800 17.814194 8.416900
					CHANNELS 3 Xrotation Yrotation Zrotation
					JOINT Head
					{
						OFFSET 0.000000 7.031097 3.806800
						CHANNELS 3 Xrotation Yrotation Zrotation
						JOINT HeadTop_End
						{
							OFFSET 0.000000 24.646606 12.978600
							CHANNELS 3 Xrotation Yrotation Zrotation
							End Site
							{
								OFFSET 0.000000 27.854965 0.000000
							}
						}
					}
				}
				JOINT LeftShoulder
				{
					OFFSET 16.952999 14.495407 -7.737500
					CHANNELS 3 Xrotation Yrotation Zrotation
					JOINT LeftArm
					{
						OFFSET 9.308998 -2.777710 0.208600
						CHANNELS 3 Xrotation Yrotation Zrotation
						JOINT LeftForeArm
						{
							OFFSET 29.972298 0.000000 0.000000
							CHANNELS 3 Xrotation Yrotation Zrotation
							JOINT LeftHand
							{
								OFFSET 26.026505 0.000000 0.000000
								CHANNELS 3 Xrotation Yrotation Zrotation
								JOINT LeftHandThumb1
								{
									OFFSET 12.240501 -7.147949 9.207150
									CHANNELS 3 Xrotation Yrotation Zrotation
									JOINT LeftHandThumb2
									{
										OFFSET 4.138618 -2.389435 2.389433
										CHANNELS 3 Xrotation Yrotation Zrotation
										JOINT LeftHandThumb3
										{
											OFFSET 2.726913 -1.574387 1.574386
											CHANNELS 3 Xrotation Yrotation Zrotation
											JOINT LeftHandThumb4
											{
												OFFSET 3.941010 -2.275345 2.275342
												CHANNELS 3 Xrotation Yrotation Zrotation
												End Site
												{
													OFFSET -0.005798 5.087799 0.009903
												}
											}
										}
									}
								}
								JOINT LeftHandIndex1
								{
									OFFSET 24.424698 -1.985611 5.953459
									CHANNELS 3 Xrotation Yrotation Zrotation
									JOINT LeftHandIndex2
									{
										OFFSET 6.426697 0.000000 0.000000
										CHANNELS 3 Xrotation Yrotation Zrotation
										JOINT LeftHandIndex3
										{
											OFFSET 5.337898 0.000000 0.000000
											CHANNELS 3 Xrotation Yrotation Zrotation
											JOINT LeftHandIndex4
											{
												OFFSET 4.409401 0.000000 0.000000
												CHANNELS 3 Xrotation Yrotation Zrotation
												End Site
												{
													OFFSET 0.000000 4.409363 0.014373
												}
											}
										}
									}
								}
								JOINT LeftHandMiddle1
								{
									OFFSET 23.810104 0.000000 0.000000
									CHANNELS 3 Xrotation Yrotation Zrotation
									JOINT LeftHandMiddle2
									{
										OFFSET 7.176498 0.000000 0.000000
										CHANNELS 3 Xrotation Yrotation Zrotation
										JOINT LeftHandMiddle3
										{
											OFFSET 6.774902 0.000000 0.000000
											CHANNELS 3 Xrotation Yrotation Zrotation
											JOINT LeftHandMiddle4
											{
												OFFSET 5.403328 0.000000 0.000000
												CHANNELS 3 Xrotation Yrotation Zrotation
												End Site
												{
													OFFSET -0.027702 5.403244 0.017414
												}
											}
										}
									}
								}
								JOINT LeftHandRing1
								{
									OFFSET 22.908401 -0.839279 -6.020567
									CHANNELS 3 Xrotation Yrotation Zrotation
									JOINT LeftHandRing2
									{
										OFFSET 6.337502 0.000000 0.000000
										CHANNELS 3 Xrotation Yrotation Zrotation
										JOINT LeftHandRing3
										{
											OFFSET 5.779297 0.000000 0.000000
											CHANNELS 3 Xrotation Yrotation Zrotation
											JOINT LeftHandRing4
											{
												OFFSET 4.965698 0.000000 0.000000
												CHANNELS 3 Xrotation Yrotation Zrotation
												End Site
												{
													OFFSET 0.000000 4.965668 0.016186
												}
											}
										}
									}
								}
								JOINT LeftHandPinky1
								{
									OFFSET 20.037003 -1.530319 -10.950146
									CHANNELS 3 Xrotation Yrotation Zrotation
									JOINT LeftHandPinky2
									{
										OFFSET 5.254700 0.000000 0.000000
										CHANNELS 3 Xrotation Yrotation Zrotation
										JOINT LeftHandPinky3
										{
											OFFSET 4.810204 0.000000 0.000000
											CHANNELS 3 Xrotation Yrotation Zrotation
											JOINT LeftHandPinky4
											{
												OFFSET 3.647202 0.000000 0.000000
												CHANNELS 3 Xrotation Yrotation Zrotation
												End Site
												{
													OFFSET 0.000000 3.647186 0.011889
												}
											}
										}
									}
								}
							}
						}
					}
				}
				JOINT RightShoulder
				{
					OFFSET -15.141001 14.495407 -7.737500
					CHANNELS 3 Xrotation Yrotation Zrotation
					JOINT RightArm
					{
						OFFSET -9.308998 -2.777710 0.208500
						CHANNELS 3 Xrotation Yrotation Zrotation
						JOINT RightForeArm
						{
							OFFSET -29.972300 0.000000 0.000000
							CHANNELS 3 Xrotation Yrotation Zrotation
							JOINT RightHand
							{
								OFFSET -26.026505 0.000000 0.000000
								CHANNELS 3 Xrotation Yrotation Zrotation
								JOINT RightHandThumb1
								{
									OFFSET -12.240601 -7.148026 9.207092
									CHANNELS 3 Xrotation Yrotation Zrotation
									JOINT RightHandThumb2
									{
										OFFSET -4.138618 -2.389435 2.389433
										CHANNELS 3 Xrotation Yrotation Zrotation
										JOINT RightHandThumb3
										{
											OFFSET -2.726974 -1.574417 1.574421
											CHANNELS 3 Xrotation Yrotation Zrotation
											JOINT RightHandThumb4
											{
												OFFSET -3.941010 -2.275345 2.275343
												CHANNELS 3 Xrotation Yrotation Zrotation
												End Site
												{
													OFFSET 0.005814 5.087799 0.009927
												}
											}
										}
									}
								}
								JOINT RightHandIndex1
								{
									OFFSET -24.424698 -1.985657 5.953444
									CHANNELS 3 Xrotation Yrotation Zrotation
									JOINT RightHandIndex2
									{
										OFFSET -6.426697 0.000000 0.000000
										CHANNELS 3 Xrotation Yrotation Zrotation
										JOINT RightHandIndex3
										{
											OFFSET -5.337898 0.000000 0.000000
											CHANNELS 3 Xrotation Yrotation Zrotation
											JOINT RightHandIndex4
											{
												OFFSET -4.409401 0.000000 0.000000
												CHANNELS 3 Xrotation Yrotation Zrotation
												End Site
												{
													OFFSET 0.000000 4.409363 0.014408
												}
											}
										}
									}
								}
								JOINT RightHandMiddle1
								{
									OFFSET -23.810097 0.000000 0.000000
									CHANNELS 3 Xrotation Yrotation Zrotation
									JOINT RightHandMiddle2
									{
										OFFSET -7.176498 0.000000 0.000000
										CHANNELS 3 Xrotation Yrotation Zrotation
										JOINT RightHandMiddle3
										{
											OFFSET -6.774902 0.000000 0.000000
											CHANNELS 3 Xrotation Yrotation Zrotation
											JOINT RightHandMiddle4
											{
												OFFSET -5.403328 0.000000 0.000000
												CHANNELS 3 Xrotation Yrotation Zrotation
												End Site
												{
													OFFSET 0.027702 5.403244 0.017457
												}
											}
										}
									}
								}
								JOINT RightHandRing1
								{
									OFFSET -22.908302 -0.839325 -6.020576
									CHANNELS 3 Xrotation Yrotation Zrotation
									JOINT RightHandRing2
									{
										OFFSET -6.337502 0.000000 0.000000
										CHANNELS 3 Xrotation Yrotation Zrotation
										JOINT RightHandRing3
										{
											OFFSET -5.779297 0.000000 0.000000
											CHANNELS 3 Xrotation Yrotation Zrotation
											JOINT RightHandRing4
											{
												OFFSET -4.965698 0.000000 0.000000
												CHANNELS 3 Xrotation Yrotation Zrotation
												End Site
												{
													OFFSET 0.000000 4.965668 0.016226
												}
											}
										}
									}
								}
								JOINT RightHandPinky1
								{
									OFFSET -20.037003 -1.530334 -10.950259
									CHANNELS 3 Xrotation Yrotation Zrotation
									JOINT RightHandPinky2
									{
										OFFSET -5.254700 0.000000 0.000000
										CHANNELS 3 Xrotation Yrotation Zrotation
										JOINT RightHandPinky3
										{
											OFFSET -4.810204 0.000000 0.000000
											CHANNELS 3 Xrotation Yrotation Zrotation
											JOINT RightHandPinky4
											{
												OFFSET -3.647202 0.000000 0.000000
												CHANNELS 3 Xrotation Yrotation Zrotation
												End Site
												{
													OFFSET 0.000000 3.647186 0.011917
												}
											}
										}
									}
								}
							}
						}
					}
				}
			}
		}
	}
	JOINT LeftUpLeg
	{
		OFFSET 15.427100 -6.655098 0.678600
		CHANNELS 3 Xrotation Yrotation Zrotation
		JOINT LeftLeg
		{
			OFFSET 4.081073 -39.591068 13.024000
			CHANNELS 3 Xrotation Yrotation Zrotation
			JOINT LeftFoot
			{
				OFFSET -4.081074 -37.707932 -15.979700
				CHANNELS 3 Xrotation Yrotation Zrotation
				JOINT LeftToeBase
				{
					OFFSET 5.346399 -15.068900 20.645000
					CHANNELS 3 Xrotation Yrotation Zrotation
					JOINT LeftToe_End
					{
						OFFSET 2.754700 0.931300 11.300900
						CHANNELS 3 Xrotation Yrotation Zrotation
						End Site
						{
							OFFSET 0.000000 11.669021 0.000000
						}
					}
				}
			}
		}
	}
	JOINT RightUpLeg
	{
		OFFSET -15.569500 -6.655098 0.678600
		CHANNELS 3 Xrotation Yrotation Zrotation
		JOINT RightLeg
		{
			OFFSET -4.081825 -39.591045 13.023800
			CHANNELS 3 Xrotation Yrotation Zrotation
			JOINT RightFoot
			{
				OFFSET 4.081824 -37.707954 -15.979600
				CHANNELS 3 Xrotation Yrotation Zrotation
				JOINT RightToeBase
				{
					OFFSET -5.346400 -15.068900 20.645000
					CHANNELS 3 Xrotation Yrotation Zrotation
					JOINT RightToe_End
					{
						OFFSET -2.754700 0.931300 11.300900
						CHANNELS 3 Xrotation Yrotation Zrotation
						End Site
						{
							OFFSET 0.000000 11.669021 0.000000
						}
					}
				}
			}
		}
	}
}
MOTION
Frames: 4
Frame Time: 0.033333
-0.705308 86.625038 -0.881868 12.331052 -8.953270 2.016668 12.130611 -2.413876 0.262473 8.544912 -1.947405 0.125649 8.569057 -1.848252 0.197182 -0.468438 2.080102 -3.038692 -23.164151 8.064355 -0.109157 0.000000 -0.000000 -0.000000 2.998926 -9.308756 -5.673151 -9.974282 -5.253109 -50.881935 -0.019624 -90.798943 -0.019501 41.171759 3.391092 11.278562 2.286965 -18.059201 8.747235 -1.498240 29.601470 12.459484 -2.171677 12.500530 7.939241 -0.000003 0.000000 -0.000000 0.424990 -2.385879 20.197305 0.470980 2.507211 -21.274294 0.118678 1.275519 -10.631988 -0.000000 -0.000001 -0.000002 0.425654 -2.387694 20.213311 0.471671 2.509016 -21.290306 0.118684 1.275522 -10.631994 -0.000001 0.000000 -0.000002 0.424990 -2.385879 20.197305 0.470980 2.507212 -21.274294 0.118678 1.275516 -10.631988 -0.000001 0.000002 -0.000001 -0.991101 1.413189 20.695702 0.474947 -1.551224 -21.750946 0.118678 1.275524 -10.631986 0.000002 0.000001 -0.000002 2.034463 3.971087 8.611801 8.589781 36.414242 31.921033 -0.001170 91.881884 0.001002 18.022192 4.582340 -5.094004 -9.330675 13.788532 -6.175136 18.893736 -22.837137 7.898152 5.107450 -7.533400 0.625681 0.000000 0.000000 0.000003 0.134890 1.365644 -11.280795 1.603924 -4.446736 39.652144 0.412403 -2.363314 19.794930 0.000000 -0.000001 -0.000000 0.134890 1.365643 -11.280793 1.299625 -4.052695 35.547576 0.260658 -1.889629 15.707272 0.000000 0.000002 0.000001 0.134896 1.365644 -11.280798 1.603921 -4.446741 39.652158 0.412404 -2.363312 19.794926 0.000000 -0.000002 -0.000000 0.134890 1.365644 -11.280793 1.603924 -4.446745 39.652141 0.412404 -2.363311 19.794930 -0.000000 0.000001 0.000000 -43.695227 3.726344 17.086073 28.496266 3.647222 3.607384 4.991915 0.982921 -15.984898 -2.021647 -0.000002 0.000007 0.000000 0.000000 0.000000 -29.181020 -12.958920 -26.579203 27.310110 -1.836252 -1.306260 -7.150834 -3.931928 23.245652 -0.355097 0.000012 -0.000001 0.000000 -0.000000 0.000000 
-1.049632 86.673111 -1.086885 12.319319 -8.973077 2.090260 12.077088 -2.339001 0.073481 8.520988 -1.854219 0.043837 8.543530 -1.760428 0.109906 -0.339085 2.061947 -2.976185 -23.214493 8.010845 0.006000 -0.000001 0.000000 -0.000000 3.011428 -9.382359 -5.759651 -9.957577 -5.386328 -50.605039 0.009060 -90.758625 0.009125 39.443048 3.721011 11.876502 2.286960 -18.059182 8.747234 -1.498239 29.601463 12.459481 -2.171675 12.500529 7.939240 -0.000001 0.000000 -0.000000 0.424988 -2.385877 20.197301 0.470983 2.507213 -21.274294 0.118675 1.275518 -10.631985 0.000000 0.000001 0.000002 0.425652 -2.387696 20.213310 0.471671 2.509014 -21.290309 0.118681 1.275522 -10.631992 -0.000003 0.000001 0.000001 0.424988 -2.385877 20.197301 0.470982 2.507216 -21.274289 0.118678 1.275513 -10.631985 0.000001 -0.000002 -0.000000 -0.991103 1.413187 20.695697 0.474943 -1.551226 -21.750944 0.118676 1.275522 -10.631991 0.000003 0.000001 0.000003 2.029787 3.949235 8.611441 8.696673 36.826464 31.599983 0.000745 91.903474 -0.000759 18.154890 4.819857 -4.847503 -9.330686 13.788525 -6.175138 18.893734 -22.837130 7.898156 5.107455 -7.533405 0.625682 -0.000000 0.000001 -0.000003 0.134879 1.365647 -11.280784 1.603909 -4.446760 39.652151 0.412418 -2.363317 19.794932 -0.000000 0.000002 0.000000 0.134880 1.365647 -11.280779 1.311719 -4.069502 35.718304 0.264416 -1.902923 15.820658 0.000001 0.000004 -0.000001 0.134879 1.365646 -11.280777 1.603909 -4.446763 39.652154 0.412418 -2.363319 19.794930 -0.000000 0.000002 -0.000000 0.134879 1.365647 -11.280779 1.603910 -4.446767 39.652154 0.412418 -2.363316 19.794932 -0.000000 0.000002 0.000000 -43.586900 3.799104 17.241573 28.013760 3.523528 3.664078 5.391538 0.952843 -16.206275 -1.999790 0.000002 -0.000002 0.000000 0.000000 0.000000 -29.434478 -13.080862 -26.582756 27.557549 -1.672319 -0.981898 -7.292020 -3.863670 22.708936 -0.397175 0.000026 0.000001 0.000000 -0.000000 -0.000000 
-1.471505 86.734673 -1.322422 12.310701 -8.894851 2.198010 11.987212 -2.320840 -0.057787 8.471583 -1.808252 -0.002768 8.492472 -1.722332 0.060599 -0.131764 2.064290 -3.049477 -23.363418 7.962636 0.095464 0.000003 0.000000 -0.000000 3.021645 -9.485710 -6.097148 -9.768006 -5.511785 -50.060331 0.013936 -90.868775 0.014106 37.515446 4.571270 12.419990 2.286970 -18.059205 8.747229 -1.498239 29.601466 12.459483 -2.171675 12.500530 7.939242 -0.000001 0.000000 -0.000000 0.424994 -2.385878 20.197307 0.470984 2.507214 -21.274292 0.118679 1.275519 -10.631987 0.000000 -0.000000 -0.000006 0.425658 -2.387691 20.213311 0.471677 2.509017 -21.290309 0.118686 1.275522 -10.631996 0.000001 -0.000000 0.000001 0.424994 -2.385878 20.197307 0.470980 2.507215 -21.274291 0.118679 1.275516 -10.631980 0.000001 -0.000001 -0.000001 -0.991097 1.413189 20.695704 0.474941 -1.551226 -21.750946 0.118680 1.275524 -10.631992 0.000002 0.000002 -0.000003 1.928191 3.854992 8.350053 8.593151 37.391225 31.776516 0.002267 91.812598 -0.002298 18.209498 5.114996 -4.578044 -9.330696 13.788544 -6.175116 18.893734 -22.837134 7.898160 5.107450 -7.533402 0.625681 0.000001 0.000001 -0.000003 0.134883 1.365639 -11.280780 1.603920 -4.446761 39.652158 0.412412 -2.363318 19.794933 -0.000000 0.000001 0.000000 0.134884 1.365638 -11.280780 1.324252 -4.086861 35.894475 0.268275 -1.916509 15.936646 -0.000000 -0.000004 -0.000001 0.134885 1.365635 -11.280781 1.603913 -4.446757 39.652158 0.412413 -2.363319 19.794935 0.000000 0.000001 0.000000 0.134883 1.365639 -11.280780 1.603926 -4.446768 39.652161 0.412413 -2.363316 19.794938 -0.000000 -0.000001 0.000000 -43.443104 3.825611 17.318360 27.387976 3.414884 3.775761 5.903905 0.907339 -16.493814 -1.976549 0.000002 -0.000003 0.000000 0.000001 0.000000 -29.614058 -13.061320 -26.486125 27.894506 -1.762385 -0.829087 -7.509753 -3.827016 22.309029 -0.436361 0.000022 0.000000 -0.000000 0.000002 0.000000 
-1.949805 86.789146 -1.590443 12.358908 -8.893670 2.309461 11.844062 -2.249831 -0.177826 8.383737 -1.718919 -0.034800 8.402177 -1.642383 0.024151 0.109804 2.078818 -3.188799 -23.531067 7.926407 0.175607 0.000002 0.000000 -0.000000 3.045778 -9.667793 -6.482977 -9.566552 -5.499539 -49.462881 0.007244 -91.104109 0.007112 35.995032 5.717706 12.558848 2.286955 -18.059196 8.747232 -1.498237 29.601463 12.459477 -2.171669 12.500528 7.939241 -0.000000 -0.000001 -0.000001 0.424987 -2.385879 20.197305 0.470981 2.507213 -21.274296 0.118677 1.275518 -10.631987 0.000001 0.000000 -0.000001 0.425649 -2.387696 20.213311 0.471674 2.509015 -21.290308 0.118682 1.275523 -10.631992 0.000000 0.000001 0.000001 0.424987 -2.385879 20.197305 0.470980 2.507213 -21.274296 0.118674 1.275514 -10.631983 -0.000000 0.000000 -0.000003 -0.991102 1.413186 20.695702 0.474945 -1.551226 -21.750946 0.118677 1.275523 -10.631987 0.000002 -0.000002 0.000002 1.803145 3.717247 7.752108 8.062744 37.801590 32.560400 0.000434 91.803657 -0.000464 18.164193 5.446838 -4.260881 -9.330666 13.788538 -6.175132 18.893736 -22.837134 7.898153 5.107453 -7.533405 0.625685 -0.000002 0.000002 0.000001 0.134882 1.365630 -11.280794 1.603923 -4.446754 39.652182 0.412402 -2.363318 19.794949 0.000000 0.000001 -0.000000 0.134883 1.365630 -11.280797 1.337201 -4.104683 36.076127 0.272284 -1.930400 16.055277 0.000000 0.000000 0.000000 0.134886 1.365633 -11.280793 1.603921 -4.446761 39.652189 0.412402 -2.363320 19.794947 -0.000000 -0.000002 -0.000000 0.134883 1.365630 -11.280797 1.603926 -4.446761 39.652185 0.412400 -2.363312 19.794949 0.000000 0.000003 -0.000000 -43.342396 3.877382 17.517612 26.727679 3.317164 3.845247 6.454589 0.860189 -16.809811 -1.953965 0.000005 0.000004 0.000000 0.000000 -0.000000 -29.820012 -12.813707 -26.190897 28.317169 -2.055211 -0.835549 -7.751399 -3.807064 22.009313 -0.476828 0.000002 0.000003 -0.000000 -0.000002 -0.000000 
